<svg width="26" height="36" viewBox="0 0 26 36" fill="none" xmlns="http://www.w3.org/2000/svg">
<path d="M13.073 17.1952C11.9086 17.1952 10.7919 16.7326 9.9686 15.9093C9.14527 15.086 8.68273 13.9693 8.68273 12.8049C8.68273 11.6405 9.14527 10.5239 9.9686 9.70054C10.7919 8.87721 11.9086 8.41466 13.073 8.41466C14.2373 8.41466 15.354 8.87721 16.1774 9.70054C17.0007 10.5239 17.4632 11.6405 17.4632 12.8049C17.4632 13.3815 17.3497 13.9523 17.129 14.485C16.9084 15.0176 16.585 15.5016 16.1774 15.9093C15.7697 16.317 15.2857 16.6404 14.7531 16.861C14.2204 17.0816 13.6495 17.1952 13.073 17.1952ZM13.073 0.512207C9.81275 0.512207 6.68605 1.80733 4.38072 4.11266C2.07539 6.41799 0.780273 9.54469 0.780273 12.8049C0.780273 22.0244 13.073 35.6342 13.073 35.6342C13.073 35.6342 25.3657 22.0244 25.3657 12.8049C25.3657 9.54469 24.0706 6.41799 21.7652 4.11266C19.4599 1.80733 16.3332 0.512207 13.073 0.512207Z" fill="white"/>
</svg>
