<svg width="47" height="75" viewBox="0 0 47 75" fill="none" xmlns="http://www.w3.org/2000/svg">
<path d="M23.5 14.0625C24.1233 14.0625 24.721 14.3094 25.1617 14.749C25.6024 15.1885 25.85 15.7846 25.85 16.4062V25.7812C25.85 26.4029 25.6024 26.999 25.1617 27.4385C24.721 27.8781 24.1233 28.125 23.5 28.125C22.8767 28.125 22.279 27.8781 21.8383 27.4385C21.3976 26.999 21.15 26.4029 21.15 25.7812V16.4062C21.15 15.7846 21.3976 15.1885 21.8383 14.749C22.279 14.3094 22.8767 14.0625 23.5 14.0625ZM42.3 51.5625C42.3 56.5353 40.3193 61.3044 36.7936 64.8208C33.2679 68.3371 28.4861 70.3125 23.5 70.3125C18.5139 70.3125 13.7321 68.3371 10.2064 64.8208C6.68071 61.3044 4.7 56.5353 4.7 51.5625V23.4375C4.7 18.4647 6.68071 13.6956 10.2064 10.1792C13.7321 6.66294 18.5139 4.6875 23.5 4.6875C28.4861 4.6875 33.2679 6.66294 36.7936 10.1792C40.3193 13.6956 42.3 18.4647 42.3 23.4375V51.5625ZM23.5 0C17.2674 0 11.2901 2.4693 6.88299 6.86469C2.47589 11.2601 0 17.2215 0 23.4375V51.5625C0 57.7785 2.47589 63.7399 6.88299 68.1353C11.2901 72.5307 17.2674 75 23.5 75C29.7326 75 35.7099 72.5307 40.117 68.1353C44.5241 63.7399 47 57.7785 47 51.5625V23.4375C47 17.2215 44.5241 11.2601 40.117 6.86469C35.7099 2.4693 29.7326 0 23.5 0V0Z" fill="#E40412"/>
</svg>
